#!OML:ASF I:\Actors\actors\Patient Classification 2\Patient 1\Session 1\actor1.ASF
:FULLY-SPECIFIED
:DEGREES
130
root -0.904961 18.0457 4.88652 3.89682 -1.46825 -5.75589
lowerback 22.1631 0.086999 6.39939
upperback 5.42325 1.75327 2.92933
thorax -6.321 0.774041 -0.941868
lowerneck -17.1951 -1.08829 0.534906
upperneck 16.4868 -1.74857 0.619083
head 7.93315 -0.7313 -0.086713
rclavicle -1.88845e-014 -3.97569e-016
rhumerus -96.2669 49.8855 -76.2619
rradius 120.443
rwrist -40.7972
rhand 31.0187 -44.1842
rfingers 7.12502
rthumb 54.6204 -62.5939
lclavicle -1.88845e-014 -3.97569e-016
lhumerus -73.556 -60.5583 59.2914
lradius 121.466
lwrist 69.5197
lhand 31.062 -5.66196
lfingers 7.12502
lthumb 54.6591 12.7204
rfemur -15.1202 -6.36586 20.531
rtibia 32.0376
rfoot -21.4595 0.128193
rtoes -17.5998
lfemur -22.9798 8.49959 -6.33573
ltibia 43.9263
lfoot -22.3474 -0.707949
ltoes -58.4709
131
root -0.916503 18.0147 4.86502 4.29277 -1.25716 -5.71995
lowerback 22.6167 0.0188585 6.71555
upperback 5.2374 1.79781 3.02401
thorax -6.7496 0.77567 -1.03626
lowerneck -17.1963 -1.12794 0.491592
upperneck 16.5641 -1.77319 0.523373
head 7.95843 -0.754784 -0.114598
rclavicle 9.74045e-015 -1.82882e-014
rhumerus -96.7855 48.9236 -76.4781
rradius 121.608
rwrist -42.2981
rhand 32.5158 -45.3216
rfingers 7.12502
rthumb 55.9535 -62.7474
lclavicle 9.74045e-015 -1.82882e-014
lhumerus -74.8831 -59.6515 60.1005
lradius 122.408
lwrist 70.7786
lhand 32.7754 -4.53628
lfingers 7.12502
lthumb 56.1833 12.7104
rfemur -16.1519 -6.79948 20.5992
rtibia 33.0841
rfoot -21.7197 0.456341
rtoes -17.986
lfemur -24.0826 8.99411 -6.38449
ltibia 44.8023
lfoot -22.1648 -1.10804
ltoes -58.6565
132
root -0.926941 17.9806 4.84437 4.75981 -1.06172 -5.72055
lowerback 23.0054 -0.0532108 7.07473
upperback 5.02707 1.84929 3.13733
thorax -7.17101 0.77817 -1.13538
lowerneck -17.206 -1.12288 0.430526
upperneck 16.64 -1.74195 0.477026
head 7.98546 -0.747996 -0.116696
rclavicle 6.36111e-015 1.66979e-014
rhumerus -97.4291 47.9615 -76.8474
rradius 122.752
rwrist -43.6448
rhand 34.2553 -46.2765
rfingers 7.12502
rthumb 57.4865 -62.4499
lclavicle 6.36111e-015 1.66979e-014
lhumerus -76.2261 -58.3905 61.237
lradius 123.13
lwrist 71.9414
lhand 34.1564 -3.18791
lfingers 7.12502
lthumb 57.3999 13.06
rfemur -17.3397 -7.23556 20.7144
rtibia 34.2786
rfoot -21.9955 0.850015
rtoes -18.1013
lfemur -25.3251 9.53042 -6.42058
ltibia 45.8212
lfoot -21.9101 -1.44286
ltoes -58.6478
133
root -0.92847 17.9383 4.81968 5.40059 -1.0117 -5.76933
lowerback 23.3143 -0.0713715 7.56424
upperback 4.74345 2.00177 3.23084
thorax -7.6202 0.821643 -1.35741
lowerneck -17.3623 -1.16546 0.368323
upperneck 16.8513 -1.78208 0.452025
head 8.08378 -0.771581 -0.121444
rclavicle -1.11319e-014 -2.78299e-014
rhumerus -98.0243 46.7621 -77.2157
rradius 123.786
rwrist -44.5242
rhand 36.6579 -47.1447
rfingers 7.12502
rthumb 59.5718 -61.3667
lclavicle -1.11319e-014 -2.78299e-014
lhumerus -77.641 -56.8349 62.862
lradius 123.582
lwrist 72.7123
lhand 34.7354 -2.50533
lfingers 7.12502
lthumb 57.9065 13.2997
rfemur -18.8494 -7.61912 20.8759
rtibia 35.6018
rfoot -22.205 1.28785
rtoes -18.246
lfemur -26.7697 10.0776 -6.48096
ltibia 46.9165
lfoot -21.8194 -1.71139
ltoes -58.6395
134
root -0.911284 17.8838 4.78424 6.28509 -1.10951 -5.81812
lowerback 23.4908 -0.0862412 8.22009
upperback 4.38174 2.19122 3.27183
thorax -8.07501 0.872758 -1.74043
lowerneck -17.5277 -1.22965 0.461429
upperneck 17.0256 -1.8494 0.218468
head 8.16774 -0.819745 -0.224612
rclavicle -2.62396e-014 0
rhumerus -98.0566 45.1301 -77.3543
rradius 124.602
rwrist -45.0583
rhand 39.073 -48.2214
rfingers 7.12502
rthumb 61.6224 -60.1777
lclavicle -2.62396e-014 0
lhumerus -79.0178 -54.874 64.7846
lradius 123.788
lwrist 73.11
lhand 34.7553 -2.81271
lfingers 7.12502
lthumb 57.9238 12.9769
rfemur -20.7932 -8.01056 21.0125
rtibia 37.0391
rfoot -22.2893 1.80726
rtoes -18.4627
lfemur -28.5624 10.6112 -6.6883
ltibia 48.0807
lfoot -21.9045 -1.80709
ltoes -58.779
135
root -0.916413 17.8321 4.76704 6.99945 -0.880366 -5.76734
lowerback 23.6074 -0.176272 8.5857
upperback 4.09459 2.21539 3.407
thorax -8.4463 0.855551 -1.80676
lowerneck -17.6808 -1.2602 0.487141
upperneck 17.1349 -1.85396 -0.00461031
head 8.22858 -0.842347 -0.305686
rclavicle -1.31198e-014 -3.4191e-014
rhumerus -97.8678 43.6209 -77.5376
rradius 125.262
rwrist -45.713
rhand 40.6943 -48.9364
rfingers 7.12502
rthumb 62.9682 -59.1702
lclavicle -1.31198e-014 -3.4191e-014
lhumerus -80.1823 -52.6098 66.7605
lradius 123.731
lwrist 73.2662
lhand 34.7735 -2.99351
lfingers 7.12502
lthumb 57.9397 12.7819
rfemur -22.4122 -8.43281 21.132
rtibia 38.5379
rfoot -22.775 2.23328
rtoes -18.2472
lfemur -30.1434 10.9997 -6.87863
ltibia 49.2016
lfoot -22.0758 -2.13826
ltoes -58.9878
136
root -0.920263 17.7753 4.75407 7.65377 -0.774132 -5.68925
lowerback 23.7289 -0.230786 8.909
upperback 3.8527 2.27375 3.53759
thorax -8.76936 0.856835 -1.86357
lowerneck -17.9198 -1.26918 0.338021
upperneck 17.2638 -1.81501 -0.0684767
head 8.3149 -0.839383 -0.300494
rclavicle -7.95139e-015 -3.18055e-015
rhumerus -97.6569 42.3474 -77.8549
rradius 125.725
rwrist -46.591
rhand 41.669 -49.1268
rfingers 7.12502
rthumb 63.7634 -58.2367
lclavicle -7.95139e-015 -3.18055e-015
lhumerus -81.1054 -50.128 68.8432
lradius 123.347
lwrist 72.9458
lhand 34.4088 -2.98514
lfingers 7.12502
lthumb 57.621 13.0716
rfemur -23.9818 -8.77023 21.2092
rtibia 40.0762
rfoot -23.2816 2.67369
rtoes -18.0453
lfemur -31.5794 11.3773 -7.09463
ltibia 50.3006
lfoot -22.373 -2.45647
ltoes -59.0691
137
root -0.925666 17.7137 4.74296 8.30035 -0.751335 -5.63038
lowerback 23.7996 -0.258145 9.19577
upperback 3.63105 2.35182 3.66489
thorax -9.04332 0.86971 -1.90799
lowerneck -17.993 -1.26822 0.269029
upperneck 17.211 -1.76702 -0.202452
head 8.30928 -0.835609 -0.328522
rclavicle -2.38542e-015 -3.18055e-015
rhumerus -97.5819 41.3111 -78.4789
rradius 125.961
rwrist -47.5154
rhand 41.9313 -48.6911
rfingers 7.12502
rthumb 63.9755 -57.4864
lclavicle -2.38542e-015 -3.18055e-015
lhumerus -81.9874 -47.4875 71.1748
lradius 122.697
lwrist 72.1068
lhand 32.7791 -3.73538
lfingers 7.12502
lthumb 56.1866 13.5087
rfemur -25.5464 -9.02521 21.3163
rtibia 41.6011
rfoot -23.7841 3.01061
rtoes -18.2603
lfemur -32.9223 11.761 -7.27914
ltibia 51.3346
lfoot -22.7231 -2.7792
ltoes -59.0205
138
root -0.935496 17.6491 4.73405 8.94568 -0.801561 -5.60696
lowerback 23.8063 -0.254728 9.42718
upperback 3.43123 2.44765 3.7985
thorax -9.26041 0.894889 -1.91824
lowerneck -17.9233 -1.24637 0.469274
upperneck 17.0176 -1.71864 -0.54873
head 8.22667 -0.836794 -0.469686
rclavicle -2.14687e-014 -7.55382e-014
rhumerus -97.6448 40.5614 -79.444
rradius 125.96
rwrist -48.2503
rhand 41.2074 -47.5421
rfingers 7.12502
rthumb 63.3882 -57.193
lclavicle -2.14687e-014 -7.55382e-014
lhumerus -82.8417 -44.8988 73.6822
lradius 121.791
lwrist 70.8182
lhand 30.0412 -5.09607
lfingers 7.12502
lthumb 53.744 13.9136
rfemur -27.1047 -9.152 21.4713
rtibia 43.1181
rfoot -24.3206 3.29032
rtoes -18.6234
lfemur -34.2186 12.2058 -7.42242
ltibia 52.3463
lfoot -23.1007 -3.02434
ltoes -59.0961
139
root -0.950169 17.5848 4.73132 9.56267 -0.961422 -5.61774
lowerback 23.7474 -0.219585 9.61467
upperback 3.26774 2.55977 3.91223
thorax -9.40108 0.932471 -1.92958
lowerneck -17.9827 -1.15843 0.899096
upperneck 16.9741 -1.61386 -1.03894
head 8.21458 -0.810594 -0.691682
rclavicle 1.27222e-014 2.06736e-014
rhumerus -97.3793 39.7364 -80.4348
rradius 125.678
rwrist -48.5244
rhand 39.6144 -46.3947
rfingers 7.12502
rthumb 62.0748 -57.7952
lclavicle 1.27222e-014 2.06736e-014
lhumerus -83.675 -42.5517 76.3091
lradius 120.683
lwrist 69.0702
lhand 26.2882 -6.06688
lfingers 7.12502
lthumb 50.3412 14.9749
rfemur -28.5848 -9.07354 21.6509
rtibia 44.6007
rfoot -24.9038 3.47753
rtoes -19.1833
lfemur -35.4076 12.7348 -7.51657
ltibia 53.3275
lfoot -23.5193 -3.27825
ltoes -59.211
140
root -0.970196 17.5198 4.73073 10.1827 -1.19107 -5.68027
lowerback 23.6793 -0.158174 9.75399
upperback 3.10448 2.69469 4.04465
thorax -9.53783 0.982539 -1.89963
lowerneck -18.1521 -1.02093 1.23815
upperneck 17.0764 -1.44158 -1.41558
head 8.27476 -0.746358 -0.854876
rclavicle 5.96354e-015 2.14687e-014
rhumerus -96.8743 38.9213 -81.4436
rradius 125.187
rwrist -48.3227
rhand 36.9597 -45.4774
rfingers 7.12502
rthumb 59.8307 -59.4342
lclavicle 5.96354e-015 2.14687e-014
lhumerus -84.6091 -40.5593 79.2311
lradius 119.446
lwrist 66.6937
lhand 20.3176 -7.1008
lfingers 7.12502
lthumb 44.8308 16.4651
rfemur -30.0268 -8.73002 21.8788
rtibia 46.0146
rfoot -25.5301 3.50445
rtoes -19.4102
lfemur -36.5444 13.2848 -7.53003
ltibia 54.2611
lfoot -23.9377 -3.59108
ltoes -59.17
